<?xml version="1.0" encoding="utf-8"?>
<!-- Generator: Circuit Diagram, cdlibrary.dll 4.0.0.0 -->
<!DOCTYPE svg PUBLIC "-//W3C//DTD SVG 1.1//EN" "http://www.w3.org/Graphics/SVG/1.1/DTD/svg11.dtd">
<svg version="1.1" width="500" height="360" xmlns="http://www.w3.org/2000/svg">
	<style type='text/css'>text { fill: rgb(255, 255, 255); }</style>
	<line x1="400" y1="150" x2="460" y2="150" style="stroke:rgb(255, 255, 255);stroke-linecap:square;stroke-width:2" />
	<line x1="460" y1="150" x2="460" y2="210" style="stroke:rgb(255, 255, 255);stroke-linecap:square;stroke-width:2" />
	<line x1="460" y1="80" x2="460" y2="150" style="stroke:rgb(255, 255, 255);stroke-linecap:square;stroke-width:2" />
	<line x1="400" y1="30" x2="400" y2="70" style="stroke:rgb(255, 255, 255);stroke-linecap:square;stroke-width:2" />
	<line x1="400" y1="30" x2="460" y2="30" style="stroke:rgb(255, 255, 255);stroke-linecap:square;stroke-width:2" />
	<line x1="460" y1="30" x2="460" y2="60" style="stroke:rgb(255, 255, 255);stroke-linecap:square;stroke-width:2" />
	<line x1="460" y1="80" x2="450" y2="80" style="stroke:rgb(255, 255, 255);stroke-linecap:square;stroke-width:2" />
	<line x1="460" y1="60" x2="450" y2="60" style="stroke:rgb(255, 255, 255);stroke-linecap:square;stroke-width:2" />
	<line x1="406" y1="70" x2="400" y2="70" style="stroke:rgb(255, 255, 255);stroke-linecap:square;stroke-width:2" />
	<path d="M 450,70 L 450,40 L 406,70 L 450,100 L 450,70 Z" style="fill-opacity:0;fill:rgb(255, 255, 255);stroke:rgb(255, 255, 255);stroke-linecap:square;stroke-width:2" />
	<path d="M 450,70 M 445,80 L 435,80 M 440,85 L 440,75 M 445,60 L 435,60 M 407,70" style="fill-opacity:0;fill:rgb(255, 255, 255);stroke:rgb(255, 255, 255);stroke-linecap:square;stroke-width:2" />
	<line x1="60" y1="140" x2="60" y2="160" style="stroke:rgb(255, 255, 255);stroke-linecap:square;stroke-width:2" />
	<line x1="120" y1="140" x2="120" y2="160" style="stroke:rgb(255, 255, 255);stroke-linecap:square;stroke-width:2" />
	<line x1="180" y1="140" x2="180" y2="160" style="stroke:rgb(255, 255, 255);stroke-linecap:square;stroke-width:2" />
	<line x1="60" y1="140" x2="270" y2="140" style="stroke:rgb(255, 255, 255);stroke-linecap:square;stroke-width:2" />
	<line x1="180" y1="300" x2="180" y2="320" style="stroke:rgb(255, 255, 255);stroke-linecap:square;stroke-width:2" />
	<line x1="120" y1="290" x2="120" y2="300" style="stroke:rgb(255, 255, 255);stroke-linecap:square;stroke-width:2" />
	<line x1="180" y1="270" x2="180" y2="300" style="stroke:rgb(255, 255, 255);stroke-linecap:square;stroke-width:2" />
	<line x1="120" y1="270" x2="120" y2="290" style="stroke:rgb(255, 255, 255);stroke-linecap:square;stroke-width:2" />
	<line x1="60" y1="270" x2="60" y2="300" style="stroke:rgb(255, 255, 255);stroke-linecap:square;stroke-width:2" />
	<line x1="60" y1="300" x2="270" y2="300" style="stroke:rgb(255, 255, 255);stroke-linecap:square;stroke-width:2" />
	<line x1="270" y1="280" x2="270" y2="300" style="stroke:rgb(255, 255, 255);stroke-linecap:square;stroke-width:2" />
	<line x1="180" y1="320" x2="180" y2="320" style="stroke:rgb(255, 255, 255);stroke-linecap:square;stroke-width:2" />
	<line x1="180" y1="320" x2="180" y2="328" style="stroke:rgb(255, 255, 255);stroke-linecap:square;stroke-width:2" />
	<path d="M 172,328 L 188,328 L 180,336 L 172,328 Z" style="fill-opacity:0;fill:rgb(255, 255, 255);stroke:rgb(255, 255, 255);stroke-linecap:square;stroke-width:2" />
	<line x1="120" y1="160" x2="120" y2="180" style="stroke:rgb(255, 255, 255);stroke-linecap:square;stroke-width:2" />
	<line x1="60" y1="160" x2="60" y2="180" style="stroke:rgb(255, 255, 255);stroke-linecap:square;stroke-width:2" />
	<line x1="60" y1="210" x2="60" y2="220" style="stroke:rgb(255, 255, 255);stroke-linecap:square;stroke-width:2" />
	<line x1="180" y1="160" x2="180" y2="220" style="stroke:rgb(255, 255, 255);stroke-linecap:square;stroke-width:2" />
	<line x1="120" y1="210" x2="120" y2="220" style="stroke:rgb(255, 255, 255);stroke-linecap:square;stroke-width:2" />
	<line x1="60" y1="220" x2="60" y2="241" style="stroke:rgb(255, 255, 255);stroke-linecap:square;stroke-width:2" />
	<line x1="60" y1="249" x2="60" y2="270" style="stroke:rgb(255, 255, 255);stroke-linecap:square;stroke-width:2" />
	<line x1="46" y1="241" x2="74" y2="241" style="stroke:rgb(255, 255, 255);stroke-linecap:square;stroke-width:2" />
	<line x1="46" y1="249" x2="74" y2="249" style="stroke:rgb(255, 255, 255);stroke-linecap:square;stroke-width:2" />
	<text x="40" y="245" style="font-family:Arial;font-size:11px;text-anchor:end" dominant-baseline="middle" transform="rotate(0, 40, 245)">C3</text>
	<line x1="120" y1="220" x2="120" y2="241" style="stroke:rgb(255, 255, 255);stroke-linecap:square;stroke-width:2" />
	<line x1="120" y1="249" x2="120" y2="270" style="stroke:rgb(255, 255, 255);stroke-linecap:square;stroke-width:2" />
	<line x1="106" y1="241" x2="134" y2="241" style="stroke:rgb(255, 255, 255);stroke-linecap:square;stroke-width:2" />
	<line x1="106" y1="249" x2="134" y2="249" style="stroke:rgb(255, 255, 255);stroke-linecap:square;stroke-width:2" />
	<text x="100" y="245" style="font-family:Arial;font-size:11px;text-anchor:end" dominant-baseline="middle" transform="rotate(0, 100, 245)">C2</text>
	<line x1="180" y1="220" x2="180" y2="241" style="stroke:rgb(255, 255, 255);stroke-linecap:square;stroke-width:2" />
	<line x1="180" y1="249" x2="180" y2="270" style="stroke:rgb(255, 255, 255);stroke-linecap:square;stroke-width:2" />
	<line x1="166" y1="241" x2="194" y2="241" style="stroke:rgb(255, 255, 255);stroke-linecap:square;stroke-width:2" />
	<line x1="166" y1="249" x2="194" y2="249" style="stroke:rgb(255, 255, 255);stroke-linecap:square;stroke-width:2" />
	<text x="160" y="245" style="font-family:Arial;font-size:11px;text-anchor:end" dominant-baseline="middle" transform="rotate(0, 160, 245)">C1</text>
	<line x1="270" y1="140" x2="290" y2="140" style="stroke:rgb(255, 255, 255);stroke-linecap:square;stroke-width:2" />
	<line x1="270" y1="70" x2="270" y2="140" style="stroke:rgb(255, 255, 255);stroke-linecap:square;stroke-width:2" />
	<line x1="320" y1="70" x2="330" y2="70" style="stroke:rgb(255, 255, 255);stroke-linecap:square;stroke-width:2" />
	<line x1="380" y1="70" x2="400" y2="70" style="stroke:rgb(255, 255, 255);stroke-linecap:square;stroke-width:2" />
	<line x1="350" y1="150" x2="400" y2="150" style="stroke:rgb(255, 255, 255);stroke-linecap:square;stroke-width:2" />
	<line x1="270" y1="210" x2="310" y2="210" style="stroke:rgb(255, 255, 255);stroke-linecap:square;stroke-width:2" />
	<line x1="280" y1="160" x2="290" y2="160" style="stroke:rgb(255, 255, 255);stroke-linecap:square;stroke-width:2" />
	<line x1="270" y1="160" x2="280" y2="160" style="stroke:rgb(255, 255, 255);stroke-linecap:square;stroke-width:2" />
	<line x1="270" y1="160" x2="270" y2="230" style="stroke:rgb(255, 255, 255);stroke-linecap:square;stroke-width:2" />
	<line x1="60" y1="180" x2="60" y2="181" style="stroke:rgb(255, 255, 255);stroke-linecap:square;stroke-width:2" />
	<line x1="60" y1="209" x2="60" y2="210" style="stroke:rgb(255, 255, 255);stroke-linecap:square;stroke-width:2" />
	<ellipse cx="60" cy="184" rx="3" ry="3" style="fill-opacity:0;fill:rgb(255, 255, 255);stroke:rgb(255, 255, 255);stroke-width:2" />
	<ellipse cx="60" cy="206" rx="3" ry="3" style="fill-opacity:0;fill:rgb(255, 255, 255);stroke:rgb(255, 255, 255);stroke-width:2" />
	<line x1="58" y1="187" x2="52" y2="204" style="stroke:rgb(255, 255, 255);stroke-linecap:square;stroke-width:2" />
	<line x1="120" y1="180" x2="120" y2="181" style="stroke:rgb(255, 255, 255);stroke-linecap:square;stroke-width:2" />
	<line x1="120" y1="209" x2="120" y2="210" style="stroke:rgb(255, 255, 255);stroke-linecap:square;stroke-width:2" />
	<ellipse cx="120" cy="184" rx="3" ry="3" style="fill-opacity:0;fill:rgb(255, 255, 255);stroke:rgb(255, 255, 255);stroke-width:2" />
	<ellipse cx="120" cy="206" rx="3" ry="3" style="fill-opacity:0;fill:rgb(255, 255, 255);stroke:rgb(255, 255, 255);stroke-width:2" />
	<line x1="118" y1="187" x2="112" y2="204" style="stroke:rgb(255, 255, 255);stroke-linecap:square;stroke-width:2" />
	<line x1="330" y1="70" x2="335" y2="70" style="stroke:rgb(255, 255, 255);stroke-linecap:square;stroke-width:2" />
	<line x1="375" y1="70" x2="380" y2="70" style="stroke:rgb(255, 255, 255);stroke-linecap:square;stroke-width:2" />
	<rect x="335" y="62" width="40" height="16" style="fill-opacity:0;fill:rgb(255, 255, 255);stroke:rgb(255, 255, 255);stroke-width:2" />
	<text x="355" y="46" style="font-family:Arial;font-size:11px;text-anchor:middle" dominant-baseline="baseline" transform="rotate(0, 355, 46)">Rf</text>
	<path d="M 335,70 M 338,87 L 370,52 M 364,52 L 370,52 L 370,58" style="fill-opacity:0;fill:rgb(255, 255, 255);stroke:rgb(255, 255, 255);stroke-linecap:square;stroke-width:2" />
	<line x1="270" y1="70" x2="275" y2="70" style="stroke:rgb(255, 255, 255);stroke-linecap:square;stroke-width:2" />
	<line x1="315" y1="70" x2="320" y2="70" style="stroke:rgb(255, 255, 255);stroke-linecap:square;stroke-width:2" />
	<rect x="275" y="62" width="40" height="16" style="fill-opacity:0;fill:rgb(255, 255, 255);stroke:rgb(255, 255, 255);stroke-width:2" />
	<text x="295" y="56" style="font-family:Arial;font-size:11px;text-anchor:middle" dominant-baseline="baseline" transform="rotate(0, 295, 56)">Rc</text>
	<line x1="310" y1="210" x2="365" y2="210" style="stroke:rgb(255, 255, 255);stroke-linecap:square;stroke-width:2" />
	<line x1="405" y1="210" x2="460" y2="210" style="stroke:rgb(255, 255, 255);stroke-linecap:square;stroke-width:2" />
	<rect x="365" y="202" width="40" height="16" style="fill-opacity:0;fill:rgb(255, 255, 255);stroke:rgb(255, 255, 255);stroke-width:2" />
	<text x="385" y="196" style="font-family:Arial;font-size:11px;text-anchor:middle" dominant-baseline="baseline" transform="rotate(0, 385, 196)">R1</text>
	<line x1="270" y1="230" x2="270" y2="235" style="stroke:rgb(255, 255, 255);stroke-linecap:square;stroke-width:2" />
	<line x1="270" y1="275" x2="270" y2="280" style="stroke:rgb(255, 255, 255);stroke-linecap:square;stroke-width:2" />
	<rect x="262" y="235" width="16" height="40" style="fill-opacity:0;fill:rgb(255, 255, 255);stroke:rgb(255, 255, 255);stroke-width:2" />
	<text x="256" y="255" style="font-family:Arial;font-size:11px;text-anchor:end" dominant-baseline="middle" transform="rotate(0, 256, 255)">R2</text>
	<line x1="290" y1="160" x2="300" y2="160" style="stroke:rgb(255, 255, 255);stroke-linecap:square;stroke-width:2" />
	<line x1="290" y1="140" x2="300" y2="140" style="stroke:rgb(255, 255, 255);stroke-linecap:square;stroke-width:2" />
	<line x1="344" y1="150" x2="350" y2="150" style="stroke:rgb(255, 255, 255);stroke-linecap:square;stroke-width:2" />
	<path d="M 300,150 L 300,120 L 344,150 L 300,180 L 300,150 Z" style="fill-opacity:0;fill:rgb(255, 255, 255);stroke:rgb(255, 255, 255);stroke-linecap:square;stroke-width:2" />
	<path d="M 300,150 M 305,160 L 315,160 M 310,165 L 310,155 M 305,140 L 315,140 M 343,150" style="fill-opacity:0;fill:rgb(255, 255, 255);stroke:rgb(255, 255, 255);stroke-linecap:square;stroke-width:2" />
	<ellipse cx="460" cy="150" rx="2" ry="2" style="fill-opacity:1;fill:rgb(255, 255, 255);stroke:rgb(255, 255, 255);stroke-width:2" />
	<ellipse cx="400" cy="70" rx="2" ry="2" style="fill-opacity:1;fill:rgb(255, 255, 255);stroke:rgb(255, 255, 255);stroke-width:2" />
	<ellipse cx="120" cy="140" rx="2" ry="2" style="fill-opacity:1;fill:rgb(255, 255, 255);stroke:rgb(255, 255, 255);stroke-width:2" />
	<ellipse cx="180" cy="140" rx="2" ry="2" style="fill-opacity:1;fill:rgb(255, 255, 255);stroke:rgb(255, 255, 255);stroke-width:2" />
	<ellipse cx="270" cy="140" rx="2" ry="2" style="fill-opacity:1;fill:rgb(255, 255, 255);stroke:rgb(255, 255, 255);stroke-width:2" />
	<ellipse cx="180" cy="300" rx="2" ry="2" style="fill-opacity:1;fill:rgb(255, 255, 255);stroke:rgb(255, 255, 255);stroke-width:2" />
	<ellipse cx="120" cy="300" rx="2" ry="2" style="fill-opacity:1;fill:rgb(255, 255, 255);stroke:rgb(255, 255, 255);stroke-width:2" />
	<ellipse cx="270" cy="210" rx="2" ry="2" style="fill-opacity:1;fill:rgb(255, 255, 255);stroke:rgb(255, 255, 255);stroke-width:2" />
</svg>
